<?xml version="1.0" standalone="no"?>
<!DOCTYPE svg PUBLIC "-//W3C//DTD SVG 20010904//EN"
 "http://www.w3.org/TR/2001/REC-SVG-20010904/DTD/svg10.dtd">
<svg version="1.0" xmlns="http://www.w3.org/2000/svg"
 width="300.000000pt" height="300.000000pt" viewBox="0 0 300.000000 300.000000"
 preserveAspectRatio="xMidYMid meet">
<metadata>
Created by potrace 1.10, written by Peter Selinger 2001-2011
</metadata>
<g transform="translate(0.000000,300.000000) scale(0.100000,-0.100000)"
fill="#000000" stroke="none">
<path d="M928 2973 c-16 -2 -28 -10 -28 -18 0 -7 -25 -39 -55 -69 -30 -31 -54
-60 -53 -64 4 -14 -39 -79 -70 -106 -73 -61 -97 -100 -127 -206 -10 -36 -22
-69 -27 -74 -4 -6 -8 -29 -8 -52 l0 -41 -92 -7 c-77 -6 -158 -10 -455 -25 -7
-1 -13 -9 -13 -20 0 -16 5 -17 43 -10 62 12 170 11 220 -2 46 -13 159 -3 122
11 -11 4 17 9 72 13 111 8 123 12 130 48 6 32 23 29 23 -4 0 -12 9 -39 20 -60
l21 -38 -178 1 c-98 1 -185 1 -193 0 -8 0 -28 2 -43 6 -25 6 -28 4 -25 -12 4
-22 0 -22 473 -21 606 1 571 3 665 -27 47 -16 105 -39 130 -53 25 -14 95 -51
155 -83 197 -102 269 -142 328 -184 33 -23 76 -51 98 -64 22 -13 51 -39 66
-58 14 -19 35 -40 45 -45 17 -9 18 -8 9 10 -17 31 -13 34 15 12 15 -12 31 -21
37 -21 10 0 109 -63 132 -83 11 -10 8 -10 -112 23 -46 13 -80 26 -77 31 5 9
-57 42 -230 120 -61 27 -121 60 -135 73 -50 46 -129 95 -172 106 -24 6 -80 24
-124 39 -249 90 -264 93 -490 102 -256 10 -473 26 -540 39 -27 6 -86 12 -130
14 -46 2 -105 12 -140 24 -88 30 -194 62 -205 62 -26 0 -5 -28 38 -51 80 -45
245 -86 382 -95 35 -2 68 -8 73 -13 5 -5 1 -43 -9 -89 -15 -66 -21 -79 -34
-72 -56 28 -174 16 -239 -25 -70 -44 -98 -81 -105 -141 -8 -73 15 -127 78
-179 48 -39 136 -85 163 -85 13 0 13 -4 -2 -26 -16 -25 -16 -27 1 -44 24 -23
156 -90 177 -90 9 0 30 -17 47 -38 16 -21 55 -50 85 -66 30 -15 55 -30 55 -33
0 -10 -64 7 -80 22 -9 8 -36 22 -60 30 -25 9 -61 28 -80 43 -94 74 -150 87
-226 53 -43 -20 -104 -85 -104 -112 0 -9 -7 -31 -16 -49 -14 -28 -15 -37 -3
-73 7 -22 24 -53 36 -67 28 -34 150 -74 202 -67 l36 4 -3 -43 -4 -43 67 -20
c37 -12 76 -21 86 -21 11 0 28 -5 38 -12 14 -8 30 -8 66 1 26 7 49 10 51 8 3
-2 -2 -28 -9 -58 -11 -42 -20 -57 -42 -68 -17 -8 -33 -10 -40 -5 -76 59 -111
74 -168 74 -40 0 -56 3 -51 11 4 7 0 10 -11 7 -10 -1 -35 -28 -56 -58 -34 -49
-39 -62 -39 -115 0 -51 6 -72 41 -140 22 -44 53 -93 68 -110 14 -16 34 -46 44
-65 22 -44 102 -100 142 -100 50 0 98 18 135 51 140 126 217 172 318 190 52
10 54 9 95 -24 23 -19 51 -39 62 -45 48 -27 48 -27 13 -76 -18 -26 -38 -56
-43 -66 -6 -10 -17 -26 -25 -36 -14 -18 -14 -18 15 0 34 21 79 66 111 110 26
36 49 30 58 -14 8 -41 4 -47 -42 -55 -20 -3 -48 -14 -61 -24 -24 -18 -24 -18
30 -13 30 2 62 9 72 14 13 7 17 5 17 -10 0 -48 145 -101 198 -73 28 15 29 35
2 26 -32 -10 -23 9 13 26 61 31 245 61 458 75 91 6 110 4 132 -11 48 -31 339
-68 507 -63 102 3 121 6 172 31 58 28 158 125 158 153 0 24 -15 16 -48 -26
-39 -48 -86 -84 -135 -105 -48 -20 -48 -11 0 12 33 15 68 47 158 144 25 26 32
49 17 49 -15 0 -82 -62 -77 -71 9 -14 -55 -68 -114 -96 -46 -22 -69 -26 -145
-27 -50 0 -104 3 -121 6 -16 3 -83 9 -147 13 -65 4 -115 11 -113 15 3 5 37 16
77 25 39 9 80 22 92 30 11 8 28 15 38 15 10 0 18 5 18 10 0 6 -15 8 -37 5 -21
-3 -83 -12 -138 -19 -55 -8 -120 -19 -145 -24 -25 -6 -110 -16 -190 -22 -155
-13 -277 -32 -324 -49 -16 -7 -31 -9 -34 -6 -12 11 25 32 88 50 64 19 150 53
150 59 0 2 -17 0 -37 -4 -21 -4 -72 -11 -113 -14 -70 -6 -74 -5 -55 10 11 8
79 44 150 79 121 60 195 108 183 120 -6 7 -65 -18 -103 -45 -16 -11 -33 -20
-37 -20 -19 0 -5 42 22 72 l30 33 -15 -38 c-15 -37 -15 -37 5 -25 11 7 20 18
20 24 0 5 13 23 30 39 22 21 42 29 80 33 73 7 64 35 -11 35 -38 0 -39 1 -39
34 0 29 5 36 34 48 41 17 69 54 87 114 7 25 23 55 36 69 12 13 25 33 28 43 4
11 11 19 16 19 11 0 12 11 -6 -105 -16 -106 -13 -135 5 -64 21 82 19 79 48 73
15 -3 40 -10 56 -15 39 -12 46 -11 46 5 0 8 -12 23 -27 35 l-28 20 37 15 c21
9 45 16 53 16 9 0 36 13 59 30 33 22 60 31 111 36 48 5 86 17 131 41 58 30 80
33 55 8 -10 -11 -51 -123 -51 -139 0 -6 11 6 26 27 l25 38 29 -21 c50 -36 97
-99 114 -153 25 -80 9 -138 -65 -236 -32 -43 -64 -82 -71 -88 -19 -14 -139
-56 -145 -50 -7 8 65 103 92 121 32 21 78 103 107 189 20 61 21 73 9 115 -7
26 -17 52 -23 57 -8 7 -9 4 -3 -10 24 -63 24 -91 3 -155 -29 -90 -71 -162
-118 -201 -22 -19 -40 -40 -40 -47 0 -7 -6 -15 -14 -18 -7 -3 -22 -21 -32 -40
-10 -19 -27 -37 -36 -40 -10 -3 -18 -9 -18 -14 0 -11 41 1 105 29 26 11 53 21
60 21 7 0 35 17 62 38 47 37 153 92 178 92 7 0 18 -7 26 -16 10 -12 10 -20 1
-35 -7 -10 -12 -21 -12 -24 0 -7 35 -6 54 1 19 7 21 34 3 34 -7 0 -18 14 -24
31 -11 29 -15 31 -55 27 -24 -3 -52 -8 -62 -13 -16 -7 -15 -3 7 27 15 19 27
41 27 49 0 8 7 4 16 -9 19 -27 93 -76 102 -67 11 11 -13 39 -46 55 -22 10 -30
20 -25 30 13 32 15 138 3 161 -10 17 -10 24 -1 27 33 11 71 55 71 83 0 34 0
34 -69 13 l-53 -15 -26 27 c-15 15 -44 38 -64 51 l-37 25 19 39 c21 40 26 69
11 69 -4 0 -39 -13 -77 -28 -44 -19 -98 -31 -149 -36 -79 -7 -146 -29 -175
-57 -8 -8 -37 -23 -64 -33 -27 -10 -57 -27 -67 -37 -27 -27 -32 -24 -26 19 3
20 2 45 -2 56 -6 16 -14 11 -58 -37 -47 -52 -51 -54 -65 -37 -9 10 -19 26 -22
37 -7 23 -62 82 -97 105 -14 9 -48 19 -75 23 -91 12 -158 55 -86 55 34 0 54
10 121 61 45 34 81 66 81 71 0 5 12 0 26 -11 15 -12 40 -21 55 -21 51 0 49 66
-3 112 -18 15 -18 19 -4 47 18 35 21 113 5 143 -14 26 -8 30 27 19 96 -30 228
-61 282 -67 62 -7 64 -6 52 13 -13 20 -161 117 -259 169 -29 16 -55 34 -58 41
-3 7 -24 24 -48 38 -66 38 -76 66 -59 162 7 43 14 93 14 112 l0 34 53 -6 c28
-4 78 -14 110 -22 64 -17 77 -14 77 16 0 14 9 21 30 26 17 3 33 10 36 14 5 8
-7 11 -61 13 -12 1 -21 9 -23 22 -3 18 6 22 75 34 43 7 89 14 103 15 14 1 63
7 109 15 l84 13 26 -32 c39 -48 114 -57 231 -28 89 22 95 36 35 79 -25 18 -45
37 -45 43 0 6 24 20 53 31 l52 19 -48 3 c-40 3 -49 7 -57 27 -5 12 -13 26 -19
29 -6 4 -2 26 12 58 17 43 28 54 65 70 24 11 42 21 40 23 -8 8 -158 -17 -218
-36 -108 -36 -109 -36 -136 -94 -31 -65 -9 -56 -284 -109 -41 -8 -84 -18 -94
-22 -15 -6 -18 -4 -13 9 3 8 9 31 12 50 5 25 19 43 56 71 42 31 62 56 44 56
-5 0 -112 -53 -255 -125 -56 -28 -75 -34 -79 -24 -13 43 -129 108 -178 100 -7
-1 -49 10 -95 25 -139 45 -179 73 -277 193 -39 47 -84 96 -100 109 -15 12 -45
38 -65 57 -42 39 -99 67 -171 83 -60 13 -170 21 -207 15z m228 -79 c111 -49
158 -87 197 -161 38 -73 98 -139 116 -129 12 8 54 -32 114 -106 41 -50 123
-98 166 -98 l26 1 -25 13 c-14 8 -42 30 -62 48 -20 19 -52 42 -71 51 -19 9
-42 28 -51 42 -15 23 -13 23 31 -9 41 -29 214 -96 250 -96 35 0 102 -41 117
-72 9 -18 13 -34 7 -36 -23 -8 -99 -64 -130 -96 -37 -38 -39 -37 39 -57 l45
-11 -33 -29 c-34 -31 -39 -39 -21 -39 6 0 33 -14 59 -31 l47 -31 -8 -45 c-10
-54 -14 -59 -31 -46 -7 6 -48 24 -91 41 -43 17 -128 60 -190 95 -118 67 -224
114 -335 149 -55 18 -92 22 -207 22 -77 1 -152 -2 -167 -7 -18 -4 -28 -4 -28
3 0 5 3 9 8 8 35 -7 66 42 77 120 4 28 10 52 15 52 4 0 51 -16 104 -35 53 -19
104 -35 113 -35 17 0 38 -9 188 -80 44 -20 111 -47 150 -60 38 -12 82 -31 97
-41 14 -10 30 -19 35 -19 4 0 30 -11 57 -25 27 -14 52 -23 54 -20 3 3 3 7 1 9
-13 11 -203 115 -252 137 -32 14 -63 31 -69 37 -7 7 -17 12 -23 12 -6 0 -50
20 -99 45 -98 51 -247 105 -288 105 -15 0 -30 5 -33 10 -3 6 -14 10 -24 10
-21 0 -31 35 -31 104 0 68 -12 146 -22 146 -6 0 -8 -20 -6 -45 3 -47 -6 -60
-17 -25 -8 26 -55 50 -99 50 -41 0 -40 9 6 77 15 23 28 46 28 51 0 25 58 58
106 61 27 1 50 4 53 7 11 10 53 2 107 -22z m-321 -92 c-23 -35 -31 -55 -34
-84 -1 -5 -8 -8 -17 -8 -9 0 -14 6 -11 13 10 27 79 128 84 124 2 -3 -7 -23
-22 -45z m600 -90 c-2 -2 -15 9 -29 24 -14 16 -26 24 -26 18 0 -6 22 -31 50
-55 50 -44 68 -69 50 -69 -16 0 -90 71 -105 101 -11 21 -12 28 -2 32 12 5 71
-43 62 -51z m-597 -45 c7 -6 19 -24 27 -41 7 -17 14 -24 14 -16 1 8 -6 28 -14
44 -20 39 -12 43 24 15 33 -26 81 -132 81 -177 0 -41 -35 -168 -54 -198 -15
-21 -55 -47 -64 -39 -1 1 4 15 13 31 8 16 15 36 15 44 -1 8 -10 -3 -21 -25
-22 -44 -36 -61 -44 -53 -3 3 3 21 14 39 28 48 45 149 38 223 -7 74 -19 104
-52 129 -22 16 -28 16 -58 4 -68 -29 -127 -141 -114 -219 11 -64 32 -135 46
-152 7 -9 10 -16 5 -16 -34 1 -64 65 -71 149 -10 118 35 226 112 270 22 12 82
6 103 -12z m92 -2 c13 -14 21 -25 18 -25 -2 0 -15 11 -28 25 -13 14 -21 25
-18 25 2 0 15 -11 28 -25z m-134 -83 c37 -24 45 -126 18 -223 -20 -72 -41 -93
-77 -80 -58 22 -73 152 -27 246 24 49 61 74 86 57z m2059 -49 c-15 -36 -39
-63 -57 -63 -12 0 -10 4 14 55 14 29 29 45 40 45 17 0 17 -2 3 -37z m-74 -27
c-11 -25 -22 -46 -25 -46 -2 0 -11 -3 -20 -6 -14 -6 -14 -3 0 32 14 36 52 80
61 71 2 -2 -5 -25 -16 -51z m-61 -13 c-18 -37 -36 -53 -61 -53 -6 0 -3 10 5
22 9 12 16 30 16 38 0 13 47 41 57 35 2 -1 -6 -20 -17 -42z m-504 -105 c-3
-29 2 -91 10 -136 9 -46 14 -85 12 -87 -2 -2 -28 3 -58 11 -30 8 -76 16 -102
17 -63 3 -61 13 5 22 28 4 59 11 67 17 15 9 -181 3 -265 -8 l-40 -6 40 22 c79
44 221 129 274 164 29 20 55 36 57 36 3 0 3 -24 0 -52z m622 40 c10 -10 18
-68 10 -68 -16 -1 -235 -34 -273 -41 -27 -5 -86 -13 -130 -19 -44 -5 -87 -12
-96 -14 -12 -2 -16 4 -17 24 -1 27 1 27 96 44 53 9 128 26 165 37 56 17 180
44 223 48 5 1 15 -4 22 -11z m-1632 -24 c18 -14 18 -14 -6 -3 -31 14 -36 19
-24 19 6 0 19 -7 30 -16z m808 -55 c-8 -13 -21 -3 -27 22 -5 20 -5 20 13 4 11
-10 17 -22 14 -26z m306 -52 c0 -10 -8 -20 -17 -23 -10 -3 -25 -9 -35 -14 -11
-6 -18 -4 -22 6 -8 20 -8 69 0 62 3 -3 17 -3 32 1 29 8 42 -2 42 -32z m576 6
l49 -28 -30 -5 c-22 -4 -40 0 -65 17 -49 32 -61 29 -20 -7 25 -21 30 -29 18
-30 -23 0 -68 21 -63 30 3 4 -9 10 -27 14 -40 8 -35 12 27 21 27 3 51 8 54 11
6 6 3 7 57 -23z m-148 -28 c27 -18 30 -24 17 -29 -17 -6 -94 41 -95 57 0 12
40 -2 78 -28z m-720 -88 c7 -8 7 -18 2 -27 -6 -8 -10 -33 -10 -56 0 -22 -3
-43 -6 -47 -7 -6 -104 63 -104 75 0 4 5 10 10 13 6 3 10 17 10 31 0 22 4 24
44 24 24 0 48 -6 54 -13z m-1463 -77 c-27 -12 -35 -12 -35 0 0 6 12 10 28 9
24 0 25 -1 7 -9z m175 -4 c36 -3 93 -6 128 -7 34 -1 65 -6 68 -10 4 -8 -198
-3 -241 6 -11 2 -28 4 -37 4 -10 1 -18 6 -18 12 0 6 8 8 18 5 9 -2 46 -7 82
-10z m240 -16 c0 -5 -5 -10 -11 -10 -5 0 -7 5 -4 10 3 6 8 10 11 10 2 0 4 -4
4 -10z m105 0 c-3 -5 -12 -10 -18 -10 -7 0 -6 4 3 10 19 12 23 12 15 0z m120
-5 c44 -9 107 -26 130 -36 11 -4 49 -16 85 -25 36 -9 69 -21 75 -25 5 -5 17
-9 26 -9 10 0 21 -5 25 -12 4 -6 3 -8 -4 -4 -6 3 -13 3 -16 -2 -6 -10 131 -78
140 -69 9 8 74 -26 153 -79 35 -24 67 -44 71 -44 5 0 16 -3 26 -7 11 -4 15 -3
10 5 -4 6 13 0 36 -13 24 -14 51 -25 61 -25 9 0 17 -4 17 -8 0 -5 17 -16 38
-27 25 -12 32 -19 22 -23 -8 -3 -19 -11 -23 -18 -6 -11 -17 -7 -49 17 -23 16
-61 35 -85 40 -41 11 -42 12 -22 28 19 15 17 16 -38 15 -143 -4 -242 -39 -299
-107 -29 -34 -84 -147 -84 -171 0 -25 -16 -26 -58 -6 -23 11 -48 20 -56 20
-13 0 -10 11 12 53 35 66 87 204 112 299 22 84 24 98 10 98 -5 0 -10 -9 -10
-19 0 -11 -3 -28 -7 -38 -6 -15 -8 -13 -13 12 -3 19 -19 40 -45 60 -41 31
-183 83 -290 105 -51 11 -56 14 -35 21 14 4 32 5 40 3 8 -2 29 -6 45 -9z
m-532 -15 c34 -5 145 -12 247 -15 102 -4 217 -13 255 -21 107 -22 227 -66 265
-97 l34 -29 -19 -76 c-12 -47 -46 -129 -86 -209 -57 -111 -66 -133 -53 -144 8
-6 14 -8 14 -3 0 4 5 3 12 -4 7 -7 19 -12 28 -12 8 0 40 -12 70 -26 l55 -25
21 27 22 27 -1 -37 c0 -20 3 -40 9 -45 5 -6 9 13 10 52 0 72 15 105 76 171 72
77 107 91 223 91 92 0 103 -2 142 -27 23 -15 47 -36 53 -47 17 -33 12 -96 -10
-124 -19 -24 -19 -27 -4 -42 9 -9 27 -23 40 -32 14 -9 24 -25 24 -39 0 -50
-58 -15 -86 52 -17 40 -29 45 -20 8 11 -40 -27 -82 -110 -121 -113 -54 -246
-54 -300 1 -29 28 -55 36 -33 10 14 -18 12 -20 -55 -55 -41 -22 -179 -60 -282
-78 -131 -24 -504 43 -504 89 0 6 -15 20 -32 31 l-33 21 50 -7 c27 -4 72 -15
99 -26 28 -10 52 -17 54 -14 9 9 -107 65 -148 71 -70 9 -185 33 -214 44 -30
11 -86 51 -86 60 0 4 11 12 24 20 21 11 27 10 41 -4 23 -22 83 -20 151 5 46
17 61 29 85 67 54 86 34 185 -55 273 l-47 46 10 64 c14 85 14 95 -5 114 -24
23 -42 4 -61 -67 -9 -32 -20 -58 -25 -58 -11 0 -10 6 10 80 15 52 23 66 43 71
13 3 28 4 32 2 4 -3 36 -8 70 -13z m-93 -133 l-13 -83 -43 21 c-47 22 -59 41
-20 31 27 -7 56 23 56 56 0 25 20 72 27 64 3 -3 0 -43 -7 -89z m1421 18 c5 4
9 2 9 -4 0 -5 -5 -13 -10 -16 -7 -4 -6 -13 1 -26 15 -29 8 -31 -30 -7 -30 19
-32 23 -15 28 10 4 20 12 20 19 3 29 7 35 11 18 2 -9 9 -15 14 -12z m-321 -27
c0 -14 -24 -9 -57 12 -46 27 -41 32 12 12 25 -9 45 -20 45 -24z m-1243 -14
c-3 -3 -12 -4 -19 -1 -8 3 -5 6 6 6 11 1 17 -2 13 -5z m62 -56 c62 -24 99 -47
143 -88 56 -51 61 -59 64 -104 5 -64 -10 -86 -75 -110 -71 -25 -178 -18 -295
19 -81 26 -92 33 -127 78 -32 40 -39 57 -39 93 0 38 5 48 43 84 23 23 54 44
70 47 15 3 29 8 31 12 10 16 108 -1 185 -31z m1261 -131 c0 -2 -24 -16 -53
-31 -35 -17 -71 -47 -103 -86 -27 -33 -53 -60 -57 -60 -12 0 32 70 64 102 40
40 149 95 149 75z m-350 -115 c0 -5 -7 -17 -15 -28 -14 -18 -14 -17 -4 9 12
27 19 34 19 19z m-1000 -97 c-7 -8 -14 -15 -15 -15 -2 0 -5 7 -9 15 -4 10 1
15 16 15 17 0 18 -2 8 -15z m946 -12 c-10 -10 -19 5 -10 18 6 11 8 11 12 0 2
-7 1 -15 -2 -18z m-846 7 c13 -8 13 -10 -2 -10 -9 0 -20 5 -23 10 -8 13 5 13
25 0z m70 0 c-8 -5 -19 -10 -25 -10 -5 0 -3 5 5 10 8 5 20 10 25 10 6 0 3 -5
-5 -10z m75 -190 c26 -27 27 -30 9 -30 -21 0 -41 14 -63 43 -24 31 22 20 54
-13z m-337 8 c-6 -17 -36 -34 -45 -24 -4 4 1 14 11 22 24 17 39 18 34 2z m95
-8 c24 -11 60 -40 80 -65 30 -36 37 -52 37 -87 0 -54 -9 -89 -21 -82 -5 3 -27
-8 -48 -25 -30 -24 -49 -31 -84 -31 -61 0 -92 25 -78 62 15 39 50 58 104 56
51 -3 70 8 46 25 -9 7 -14 18 -11 25 3 11 0 12 -16 3 -12 -6 -24 -16 -27 -21
-3 -6 -19 -10 -34 -10 -24 0 -29 5 -34 33 -4 17 -9 41 -12 52 -4 13 3 31 22
52 15 18 29 33 31 33 1 0 22 -9 45 -20z m-153 -4 c0 -3 -4 -8 -10 -11 -5 -3
-10 -1 -10 4 0 6 5 11 10 11 6 0 10 -2 10 -4z m1610 -31 c-14 -8 -29 -14 -35
-14 -5 0 1 6 15 14 14 8 30 14 35 14 6 0 -1 -6 -15 -14z m-1597 -15 c-3 -11 2
-41 11 -65 15 -39 16 -47 3 -65 -15 -21 -15 -21 -37 7 -18 23 -20 35 -15 73 7
44 20 70 35 70 5 0 6 -9 3 -20z m1325 11 c27 -15 72 -23 134 -24 56 -2 57 -2
40 -22 -9 -11 -17 -21 -17 -22 0 -1 -14 4 -30 12 -60 27 -95 34 -156 30 l-61
-3 28 18 c34 22 39 23 62 11z m-824 -60 c13 -5 16 -10 8 -15 -11 -6 -52 9 -52
19 0 7 22 5 44 -4z m897 -7 c62 -16 109 -39 109 -54 0 -4 -14 -10 -32 -14 -35
-7 -106 -74 -132 -126 -21 -43 -20 -47 6 -24 21 19 21 19 13 -1 -4 -11 -10
-30 -12 -42 -6 -26 -18 -30 -30 -10 -4 7 -29 25 -56 40 -26 14 -45 22 -42 17
3 -4 -12 -11 -33 -15 -40 -6 -92 7 -92 25 0 5 -4 10 -10 10 -15 0 -12 -19 5
-36 16 -16 119 -38 141 -30 28 11 16 -40 -13 -54 -33 -15 -136 -40 -142 -35
-2 2 12 14 32 25 34 20 56 50 37 50 -6 0 -10 -4 -10 -9 0 -11 -61 -51 -105
-68 -26 -11 -14 -12 80 -9 61 2 119 6 129 8 14 2 25 -8 40 -38 12 -22 31 -51
44 -64 41 -44 28 -50 -117 -50 -63 0 -128 -6 -157 -14 -27 -8 -74 -18 -106
-21 -49 -6 -60 -4 -88 16 -17 13 -40 38 -50 55 -26 41 -60 152 -53 173 18 56
73 171 82 171 8 0 35 -33 73 -90 30 -44 67 -51 98 -18 12 13 47 56 77 96 109
143 174 172 314 136z m-1467 -9 c3 -8 1 -15 -4 -15 -6 0 -10 7 -10 15 0 8 2
15 4 15 2 0 6 -7 10 -15z m462 -21 c55 -26 68 -29 60 -15 -5 7 15 21 30 21 2
0 -10 -25 -27 -55 -17 -30 -29 -65 -27 -77 3 -20 9 -23 41 -22 32 1 37 -1 31
-15 -4 -9 -14 -36 -23 -61 -9 -25 -20 -48 -26 -52 -5 -4 -44 -8 -86 -8 -56 0
-89 6 -123 20 -25 12 -46 23 -46 25 0 1 16 31 35 64 39 70 55 120 55 175 0 37
1 38 27 31 15 -3 50 -17 79 -31z m705 -36 c-39 -39 -71 -75 -71 -79 0 -12 -60
-79 -70 -79 -9 0 -22 31 -17 41 3 8 -53 73 -77 86 -24 14 -47 17 -44 6 3 -12
-44 -105 -49 -99 -6 6 26 107 40 124 5 6 26 12 46 12 56 0 265 41 278 54 4 3
13 6 21 6 8 0 -18 -32 -57 -72z m-495 32 c10 0 13 -7 9 -22 -3 -13 -10 -52
-15 -88 l-8 -65 1 68 c1 37 0 67 -3 67 -3 0 -17 -11 -31 -24 -31 -29 -62 -46
-84 -46 -13 0 -11 8 11 48 41 72 45 74 77 68 16 -3 36 -6 43 -6z m944 -20 c0
-19 -18 -19 -23 -1 -3 14 -1 18 9 14 8 -3 14 -9 14 -13z m-1550 -87 c0 -21
-29 -15 -55 12 -16 15 -25 36 -25 55 l0 31 40 -42 c22 -23 40 -48 40 -56z
m720 84 c0 -20 -30 -58 -41 -52 -13 9 -11 53 4 58 22 10 37 7 37 -6z m29 -64
c-10 -38 -18 -79 -18 -92 -1 -20 -3 -22 -17 -10 -19 16 -15 53 15 122 30 68
40 58 20 -20z m-82 0 c8 -18 13 -38 10 -45 -4 -8 -8 -5 -12 10 -4 12 -11 22
-16 22 -5 0 -9 17 -8 38 0 20 3 30 6 22 3 -8 12 -29 20 -47z m1003 6 c17 -13
50 -40 72 -61 34 -31 40 -43 45 -91 5 -46 2 -61 -17 -91 -12 -20 -33 -39 -46
-42 -27 -7 -45 3 -28 14 9 6 17 35 39 150 10 51 -9 37 -22 -15 -6 -27 -23 -69
-38 -95 -26 -46 -26 -47 -45 -28 -16 16 -17 23 -8 48 13 35 0 133 -20 140 -7
2 -10 -2 -6 -12 10 -25 -5 -103 -24 -126 -25 -31 -68 -19 -67 18 0 34 -30 43
-38 11 -9 -35 8 -54 60 -67 59 -16 106 -51 94 -71 -5 -8 -32 -16 -59 -19 -59
-5 -130 23 -156 62 -14 23 -16 69 -3 83 4 3 7 21 7 40 0 46 24 101 56 126 74
60 145 69 204 26z m66 -11 l29 -33 -35 30 c-19 17 -37 31 -39 33 -2 1 0 2 5 2
6 0 23 -15 40 -32z m-1156 -92 c9 -9 -5 -42 -26 -61 -6 -5 -19 -38 -29 -73
-18 -60 -30 -80 -42 -69 -5 6 46 190 68 242 l13 30 4 -30 c2 -16 7 -34 12 -39z
m97 1 c18 -29 30 -38 44 -34 15 4 19 0 19 -18 0 -40 -18 -38 -61 4 -38 39 -57
52 -44 31 3 -5 2 -10 -4 -10 -17 0 -22 18 -15 55 5 30 9 34 22 23 8 -7 26 -30
39 -51z m723 33 c0 -5 -5 -10 -11 -10 -5 0 -7 5 -4 10 3 6 8 10 11 10 2 0 4
-4 4 -10z m-1186 -15 c-4 -8 -10 -15 -14 -15 -5 0 -10 -8 -12 -17 -3 -15 -5
-14 -10 5 -3 12 -3 20 2 17 4 -3 10 2 14 10 3 8 10 15 15 15 6 0 8 -7 5 -15z
m2366 -38 c48 -45 55 -56 50 -82 l-5 -29 -19 42 c-10 23 -36 60 -56 82 -52 56
-35 49 30 -13z m-750 -18 c0 -6 -4 -7 -10 -4 -5 3 -10 11 -10 16 0 6 5 7 10 4
6 -3 10 -11 10 -16z m826 6 c-10 -8 -23 -12 -29 -8 -11 7 12 23 33 23 12 -1
11 -4 -4 -15z m-701 -5 c3 -5 1 -10 -4 -10 -6 0 -11 5 -11 10 0 6 2 10 4 10 3
0 8 -4 11 -10z m35 0 c0 -5 -4 -10 -10 -10 -5 0 -10 5 -10 10 0 6 5 10 10 10
6 0 10 -4 10 -10z m-1330 -57 c0 -31 -2 -33 -36 -33 -32 0 -35 2 -29 23 4 12
17 32 28 45 25 26 37 15 37 -35z m710 12 c0 -8 -4 -15 -10 -15 -5 0 -7 7 -4
15 4 8 8 15 10 15 2 0 4 -7 4 -15z m-660 -42 c0 -24 -25 -9 -28 17 -3 21 -2
22 12 11 9 -7 16 -20 16 -28z m650 1 c0 -3 -7 -1 -15 6 -8 7 -15 17 -15 22 0
5 7 3 15 -6 8 -8 15 -18 15 -22z m-37 6 c9 -11 17 -23 17 -27 0 -22 60 -78
112 -104 62 -32 79 -33 181 -13 26 5 27 4 27 -35 0 -30 -4 -41 -19 -46 -30 -9
-91 -82 -91 -108 0 -17 -10 -28 -35 -40 -34 -16 -36 -16 -55 3 -11 11 -31 22
-44 26 -17 4 -29 17 -36 38 -6 18 -22 44 -35 56 -33 31 -32 38 10 46 46 8 51
18 26 52 -11 15 -31 53 -44 84 -14 30 -30 59 -36 62 -13 8 -15 26 -3 26 4 0
15 -9 25 -20z m-586 -42 c-3 -8 -6 -5 -6 6 -1 11 2 17 5 13 3 -3 4 -12 1 -19z
m-75 -4 c61 -7 63 -10 75 -99 11 -84 14 -78 -61 -97 -75 -19 -93 -28 -55 -28
21 0 16 -7 -36 -55 -32 -30 -54 -55 -47 -55 6 0 38 27 71 60 33 34 70 63 82
65 12 2 33 12 46 21 25 16 27 36 7 88 -5 13 -3 17 5 15 13 -5 28 -30 55 -91
13 -31 21 -38 44 -38 17 0 49 -15 80 -39 46 -34 50 -39 31 -44 -15 -4 -19 -2
-15 9 6 17 7 17 -89 3 -92 -12 -186 -53 -266 -115 -33 -25 -62 -45 -63 -43 -2
2 -6 24 -9 49 -8 66 -36 137 -84 213 -17 27 -22 42 -14 45 6 2 28 19 48 38 37
35 45 38 122 49 31 4 50 1 68 -10 26 -17 40 -14 28 5 -11 18 -70 40 -104 40
-24 0 -29 4 -24 16 4 10 13 14 27 10 11 -4 46 -9 78 -12z m1025 -45 c18 -18 5
-37 -23 -31 -28 5 -33 22 -6 22 14 0 15 2 2 10 -13 9 -13 10 1 10 8 0 20 -5
26 -11z m-1547 -14 c-7 -9 -15 -13 -17 -11 -7 7 7 26 19 26 6 0 6 -6 -2 -15z
m179 -63 c54 -44 79 -84 87 -142 3 -25 10 -58 14 -75 l8 -30 1 38 c1 50 18 47
26 -5 3 -24 9 -57 12 -75 4 -27 -1 -38 -37 -77 -24 -26 -54 -49 -67 -52 -24
-6 -83 12 -83 26 0 5 -11 22 -25 38 -24 28 -20 53 5 37 6 -3 10 -4 10 -1 0 3
-10 11 -22 17 -13 6 -20 8 -16 4 4 -5 3 -14 -2 -20 -7 -8 -2 -24 15 -50 14
-20 20 -35 13 -33 -7 3 -23 20 -35 39 -12 19 -32 47 -45 63 -40 50 -44 60 -16
43 31 -21 128 -48 128 -37 0 5 -25 17 -56 27 -64 20 -91 43 -122 106 -36 73
-26 164 22 200 6 4 40 5 76 1 55 -5 72 -12 109 -42z m81 -16 c0 -11 -19 -15
-25 -6 -3 5 1 10 9 10 9 0 16 -2 16 -4z m460 -48 c0 -16 -29 -8 -40 11 -17 34
-11 42 15 19 14 -12 25 -25 25 -30z m419 33 c15 -1 21 -6 18 -15 -3 -8 1 -17
10 -20 8 -4 13 -13 10 -20 -3 -8 3 -24 14 -37 39 -45 19 -231 -34 -313 -41
-62 -145 -66 -177 -6 -20 38 -12 57 26 65 44 8 107 48 129 82 21 31 45 110 44
143 -1 36 -32 85 -55 85 -13 0 -26 -14 -40 -43 -22 -47 -34 -46 -34 4 0 23 -7
38 -25 52 -36 29 -22 32 114 23z m-184 -22 c-8 -12 -45 -12 -45 0 0 10 30 20
43 14 4 -3 5 -9 2 -14z m33 -21 c-4 -46 -42 -58 -94 -31 -22 11 -40 27 -42 36
-5 23 14 21 39 -4 26 -26 79 -18 79 12 0 10 5 19 11 19 6 0 9 -14 7 -32z m42
-27 c0 -47 -18 -68 -65 -77 -64 -12 -165 42 -165 88 0 25 11 23 43 -12 33 -35
57 -43 118 -38 30 2 44 8 45 18 1 8 2 25 2 38 3 39 22 24 22 -17z m-250 19 c0
-5 -4 -10 -9 -10 -6 0 -13 5 -16 10 -3 6 1 10 9 10 9 0 16 -4 16 -10z m364
-16 c18 -46 3 -106 -35 -148 -11 -11 -19 -23 -19 -28 0 -4 -5 -8 -10 -8 -6 0
-24 -10 -40 -21 -37 -28 -127 -23 -168 9 -15 12 -48 34 -74 49 -27 16 -48 31
-48 34 0 12 77 17 121 8 83 -16 123 -11 149 16 28 30 37 31 42 8 2 -11 13 5
27 40 23 56 43 72 55 41z m-839 -25 c9 -17 14 -33 12 -35 -9 -9 -37 27 -37 47
0 27 7 24 25 -12z m460 -68 c-23 -14 -34 -16 -50 -7 -18 9 -17 11 15 17 60 11
66 9 35 -10z m535 -51 c0 -3 -11 -10 -25 -17 -24 -11 -25 -10 -25 23 l0 35 25
-18 c13 -10 24 -20 25 -23z m-962 -132 c-40 -33 -59 -37 -31 -5 36 38 44 65
39 119 -5 50 -5 49 10 -16 l16 -70 -34 -28z m992 122 c0 -5 -5 -10 -11 -10 -5
0 -7 5 -4 10 3 6 8 10 11 10 2 0 4 -4 4 -10z m-209 -27 c-19 -36 -59 -64 -109
-77 -44 -11 -52 -11 -52 0 0 8 11 14 24 14 37 0 73 17 109 50 37 35 41 36 28
13z m124 -23 c-6 -9 -9 -9 -16 1 -10 17 0 34 13 21 6 -6 7 -16 3 -22z m-8 -51
c7 -7 4 -18 -14 -35 -14 -14 -22 -31 -19 -39 3 -9 -1 -15 -9 -15 -11 0 -12 5
-5 23 5 12 11 34 14 50 7 29 16 33 33 16z m620 -39 c0 -24 -5 -30 -21 -30 -26
0 -69 22 -68 34 1 5 13 11 28 12 14 2 29 5 32 8 14 15 29 3 29 -24z m-1683
-41 c-3 -5 10 -10 28 -10 31 -2 31 -2 5 -6 -27 -4 -57 10 -57 28 0 5 7 6 15 3
8 -4 12 -10 9 -15z m1799 -6 c-7 -2 -21 -2 -30 0 -10 3 -4 5 12 5 17 0 24 -2
18 -5z m186 -19 c9 -8 -45 -2 -64 6 -14 7 -8 8 20 3 22 -3 42 -7 44 -9z"/>
<path d="M1565 2480 c10 -11 20 -20 23 -20 3 0 -3 9 -13 20 -10 11 -20 20 -23
20 -3 0 3 -9 13 -20z"/>
<path d="M1730 2344 c0 -23 -7 -58 -16 -79 -16 -39 -13 -60 5 -27 19 36 32
112 21 130 -7 13 -9 8 -10 -24z"/>
<path d="M1517 2216 c-4 -10 -5 -21 -2 -24 9 -9 17 6 13 25 -3 17 -4 17 -11
-1z"/>
<path d="M894 2460 c1 -19 7 -25 26 -27 21 -1 21 0 3 3 -12 3 -24 15 -26 27
-3 18 -4 17 -3 -3z"/>
<path d="M770 2385 c-21 -16 -42 -23 -54 -20 -20 6 -20 5 -3 -9 23 -18 53 -7
80 30 23 30 19 30 -23 -1z"/>
<path d="M757 2332 c-18 -20 -22 -32 -9 -32 10 1 45 50 34 50 -5 0 -16 -8 -25
-18z"/>
<path d="M2160 2260 c-13 -9 -13 -10 0 -10 8 0 22 5 30 10 13 9 13 10 0 10 -8
0 -22 -5 -30 -10z"/>
<path d="M2768 2373 c6 -2 18 -2 25 0 6 3 1 5 -13 5 -14 0 -19 -2 -12 -5z"/>
<path d="M2655 2360 c-27 -7 -27 -8 -5 -8 14 0 39 4 55 8 27 7 27 8 5 8 -14 0
-38 -4 -55 -8z"/>
<path d="M2511 2339 c-86 -11 -101 -20 -21 -12 73 6 152 21 110 21 -14 0 -54
-4 -89 -9z"/>
<path d="M1545 1799 c-25 -6 -23 -7 19 -8 40 -1 53 -6 72 -28 13 -16 24 -23
24 -17 0 15 -41 50 -65 56 -11 2 -33 1 -50 -3z"/>
<path d="M645 1989 c-3 -3 23 -9 56 -13 33 -3 99 -18 145 -32 47 -15 87 -24
91 -21 3 4 0 8 -8 11 -8 2 -45 14 -84 26 -73 23 -193 41 -200 29z"/>
<path d="M992 1970 c-36 -39 -74 -228 -52 -255 28 -33 66 -2 82 67 5 24 12 52
15 63 13 47 14 116 3 130 -17 20 -26 19 -48 -5z m32 -52 c-12 -85 -64 -218
-64 -164 0 23 21 107 33 133 6 13 7 26 4 30 -8 7 11 33 23 33 5 0 6 -15 4 -32z"/>
<path d="M1287 1942 c33 -21 81 -172 54 -172 -17 0 -33 31 -51 97 -15 56 -18
62 -19 33 -1 -64 16 -121 44 -150 22 -23 32 -27 47 -19 26 14 18 82 -18 150
-29 55 -41 69 -59 69 -5 0 -5 -4 2 -8z"/>
<path d="M1084 1912 c-7 -4 31 -8 85 -8 73 -1 87 0 56 7 -50 10 -126 11 -141
1z"/>
<path d="M1376 1875 c10 -8 24 -15 31 -15 7 0 10 -6 7 -14 -3 -8 -1 -23 5 -33
9 -15 10 -13 11 14 0 22 -7 37 -22 47 -30 21 -60 22 -32 1z"/>
<path d="M1990 1626 c0 -2 7 -7 16 -10 8 -3 12 -2 9 4 -6 10 -25 14 -25 6z"/>
<path d="M1828 1600 c-15 -4 -41 -18 -58 -30 -25 -18 -30 -19 -30 -6 0 9 -4
16 -9 16 -11 0 -21 -50 -21 -102 0 -22 -5 -49 -12 -61 -13 -25 -47 -57 -60
-57 -4 0 -8 -5 -8 -11 0 -8 18 -9 58 -5 46 6 62 13 85 38 23 24 28 37 23 59
-9 45 2 59 43 59 36 0 81 22 81 40 0 5 -16 2 -35 -6 -48 -20 -77 -18 -73 3 5
25 54 46 121 51 31 2 57 8 57 13 0 11 -125 10 -162 -1z m-46 -86 c-2 -10 -6
-38 -9 -61 -3 -26 -14 -50 -29 -64 -32 -30 -40 -18 -20 31 9 22 16 56 16 74 0
33 13 48 35 42 6 -2 8 -12 7 -22z"/>
<path d="M760 1556 c0 -2 9 -6 20 -9 11 -3 18 -1 14 4 -5 9 -34 13 -34 5z"/>
<path d="M855 1530 c3 -5 16 -10 28 -9 21 0 21 1 2 9 -28 12 -37 12 -30 0z"/>
<path d="M1980 1529 c0 -6 -17 -27 -37 -47 -21 -19 -47 -53 -58 -76 -15 -31
-27 -42 -47 -44 -43 -5 -33 -22 11 -22 45 0 67 22 77 76 3 19 15 37 29 44 26
14 50 66 34 75 -5 4 -9 1 -9 -6z"/>
<path d="M968 1493 c7 -3 16 -2 19 1 4 3 -2 6 -13 5 -11 0 -14 -3 -6 -6z"/>
<path d="M1013 1483 c9 -2 25 -2 35 0 9 3 1 5 -18 5 -19 0 -27 -2 -17 -5z"/>
<path d="M1128 1483 c18 -2 45 -2 60 0 15 2 0 4 -33 4 -33 0 -45 -2 -27 -4z"/>
<path d="M1233 1483 c9 -2 25 -2 35 0 9 3 1 5 -18 5 -19 0 -27 -2 -17 -5z"/>
<path d="M1617 1465 c-11 -7 -26 -11 -35 -8 -13 4 -14 3 -3 -5 12 -9 95 9 109
23 12 12 -55 3 -71 -10z"/>
<path d="M318 1863 c7 -3 16 -2 19 1 4 3 -2 6 -13 5 -11 0 -14 -3 -6 -6z"/>
<path d="M387 1851 c3 -13 -1 -21 -14 -24 -33 -10 -78 -11 -92 -3 -9 6 -12 5
-9 -5 7 -20 75 -23 104 -4 24 16 31 39 15 49 -5 4 -7 -3 -4 -13z"/>
<path d="M201 1701 c15 -23 47 -39 103 -51 173 -39 195 -41 280 -36 135 8 121
21 -22 21 -140 0 -292 30 -345 67 -28 19 -28 19 -16 -1z"/>
<path d="M352 1214 c9 -9 21 -15 27 -13 6 2 -2 10 -17 17 -25 11 -25 11 -10
-4z"/>
<path d="M435 1117 c-33 -5 -73 -15 -90 -23 l-30 -15 30 7 c17 3 56 10 89 14
53 8 76 16 65 23 -2 1 -31 -1 -64 -6z"/>
<path d="M1615 1070 c-3 -5 -30 -10 -60 -10 -39 0 -56 -4 -63 -16 -5 -9 -30
-19 -63 -24 -53 -7 -54 -8 -11 -9 25 -1 57 7 79 19 21 11 54 20 74 20 20 0 42
7 49 15 7 8 10 15 7 15 -3 0 -9 -4 -12 -10z"/>
<path d="M1110 1019 c0 -24 48 -72 63 -62 9 5 7 8 -5 11 -10 2 -18 7 -18 10 0
4 -9 18 -20 32 -14 18 -20 21 -20 9z"/>
<path d="M1430 785 c0 -25 5 -45 10 -45 6 0 10 20 10 45 0 25 -4 45 -10 45 -5
0 -10 -20 -10 -45z"/>
<path d="M540 1021 c0 -12 46 -28 99 -35 42 -6 71 4 71 26 0 6 -7 4 -16 -3
-19 -16 -59 -13 -115 6 -22 8 -39 10 -39 6z"/>
<path d="M1737 993 c-4 -3 -7 -16 -6 -27 0 -12 3 -16 5 -9 4 8 22 10 57 7 41
-4 48 -3 34 6 -9 6 -26 9 -36 5 -12 -3 -21 0 -25 10 -6 16 -18 19 -29 8z"/>
<path d="M1930 950 c20 -13 33 -13 25 0 -3 6 -14 10 -23 10 -15 0 -15 -2 -2
-10z"/>
<path d="M1710 845 c-7 -9 -11 -18 -8 -20 3 -3 11 1 18 10 7 9 11 18 8 20 -3
3 -11 -1 -18 -10z"/>
<path d="M400 722 c0 -6 12 -13 28 -17 15 -3 42 -16 61 -27 41 -26 114 -135
107 -162 -3 -11 9 -39 30 -70 19 -28 34 -58 34 -66 0 -8 5 -22 11 -30 8 -11 9
-5 5 23 -3 22 -17 55 -32 74 -15 20 -28 48 -29 62 -5 59 -87 175 -139 196 -53
22 -76 27 -76 17z"/>
<path d="M1410 315 c0 -10 29 -75 33 -75 2 0 -1 18 -6 40 -6 22 -15 40 -19 40
-4 0 -8 -2 -8 -5z"/>
<path d="M1304 434 c26 -23 36 -26 83 -22 30 3 59 10 65 16 9 9 4 9 -20 3 -41
-12 -115 -3 -125 15 -4 8 -13 14 -20 14 -7 0 1 -12 17 -26z"/>
<path d="M990 2188 c-54 -12 -432 -16 -475 -5 -27 6 -28 6 -10 -5 29 -18 440
-14 560 5 89 15 90 15 30 15 -33 0 -80 -5 -105 -10z"/>
<path d="M2295 1500 c-4 -6 6 -10 23 -10 16 0 50 -3 76 -6 40 -6 47 -10 44
-28 -5 -32 -39 -31 -108 2 -74 36 -73 21 1 -30 65 -46 109 -50 133 -13 21 32
20 47 -4 73 -18 19 -32 22 -90 22 -38 0 -72 -4 -75 -10z"/>
<path d="M2656 1038 c-18 -36 -19 -38 -8 -38 5 0 13 16 19 35 14 43 9 45 -11
3z"/>
<path d="M2027 740 c-3 -11 -1 -20 4 -20 5 0 9 9 9 20 0 11 -2 20 -4 20 -2 0
-6 -9 -9 -20z"/>
<path d="M2545 739 c-22 -10 -49 -19 -60 -19 -11 0 -42 -9 -70 -19 -27 -11
-85 -32 -127 -48 -76 -27 -97 -43 -60 -43 23 0 128 34 206 67 46 19 61 22 70
12 8 -9 7 -11 -5 -6 -9 3 -35 -7 -58 -23 -50 -33 -163 -131 -158 -137 2 -2 32
12 67 32 34 19 66 35 70 35 18 0 152 114 161 137 5 14 8 27 7 28 -2 1 -21 -6
-43 -16z"/>
<path d="M2299 573 c-13 -16 -12 -17 4 -4 16 13 21 21 13 21 -2 0 -10 -8 -17
-17z"/>
<path d="M2970 500 c-8 -5 -10 -10 -5 -10 6 0 17 5 25 10 8 5 11 10 5 10 -5 0
-17 -5 -25 -10z"/>
<path d="M2900 464 c-72 -42 -182 -63 -332 -64 -27 0 -48 -4 -48 -9 0 -12 150
-5 235 11 33 6 67 12 76 12 23 3 137 77 117 76 -2 0 -23 -12 -48 -26z"/>
<path d="M2099 455 c-3 -2 -62 -12 -132 -21 -102 -13 -130 -14 -142 -4 -9 7
-18 10 -21 7 -3 -3 4 -11 17 -17 23 -13 94 -10 278 13 82 10 109 10 127 0 22
-11 23 -10 14 8 -9 16 -22 19 -74 19 -34 0 -65 -2 -67 -5z"/>
<path d="M2260 422 c0 -5 20 -8 44 -8 24 1 42 4 39 9 -6 10 -83 9 -83 -1z"/>
</g>
</svg>
